<svg width="38" height="38" viewBox="0 0 38 38" fill="none" xmlns="http://www.w3.org/2000/svg">
<path d="M19 0.666992C15.374 0.666992 11.8294 1.74222 8.81451 3.75672C5.79961 5.77121 3.44978 8.63448 2.06218 11.9845C0.67457 15.3344 0.311508 19.0207 1.0189 22.577C1.7263 26.1333 3.47238 29.4 6.03634 31.9639C8.60031 34.5279 11.867 36.274 15.4233 36.9814C18.9796 37.6888 22.6659 37.3257 26.0158 35.9381C29.3658 34.5505 32.2291 32.2007 34.2436 29.1858C36.2581 26.1709 37.3333 22.6263 37.3333 19.0003C37.3333 16.5928 36.8591 14.2088 35.9378 11.9845C35.0164 9.76016 33.666 7.73911 31.9636 6.0367C30.2612 4.33429 28.2401 2.98387 26.0158 2.06253C23.7915 1.1412 21.4075 0.666992 19 0.666992V0.666992ZM19 28.167C18.6374 28.167 18.2829 28.0595 17.9814 27.858C17.6799 27.6566 17.4449 27.3702 17.3062 27.0352C17.1674 26.7002 17.1311 26.3316 17.2019 25.976C17.2726 25.6204 17.4472 25.2937 17.7036 25.0373C17.96 24.7809 18.2867 24.6063 18.6423 24.5356C18.9979 24.4648 19.3666 24.5011 19.7016 24.6399C20.0366 24.7786 20.3229 25.0136 20.5243 25.3151C20.7258 25.6166 20.8333 25.9711 20.8333 26.3337C20.8333 26.8199 20.6401 27.2862 20.2963 27.63C19.9525 27.9738 19.4862 28.167 19 28.167ZM20.8333 20.8337C20.8333 21.3199 20.6401 21.7862 20.2963 22.13C19.9525 22.4738 19.4862 22.667 19 22.667C18.5137 22.667 18.0474 22.4738 17.7036 22.13C17.3598 21.7862 17.1666 21.3199 17.1666 20.8337V11.667C17.1666 11.1808 17.3598 10.7144 17.7036 10.3706C18.0474 10.0268 18.5137 9.83366 19 9.83366C19.4862 9.83366 19.9525 10.0268 20.2963 10.3706C20.6401 10.7144 20.8333 11.1808 20.8333 11.667V20.8337Z" fill="#DE1336"/>
</svg>
