<svg width="29" height="29" viewBox="0 0 29 29" fill="none" xmlns="http://www.w3.org/2000/svg">
<path fill-rule="evenodd" clip-rule="evenodd" d="M1.92847 14.1655C1.57345 13.8104 0.997843 13.8104 0.642822 14.1655C0.287801 14.5205 0.287802 15.0961 0.642823 15.4511L13.527 28.3353C13.5271 28.3353 13.5271 28.3353 13.5271 28.3353C13.5271 28.3353 13.5271 28.3353 13.5271 28.3353L13.8346 28.6428C14.0044 28.8126 14.2797 28.8126 14.4495 28.6428L27.6693 15.4231C28.0089 15.0835 28.0089 14.5329 27.6693 14.1933C27.3297 13.8538 26.7791 13.8538 26.4396 14.1933L15.6122 25.0207C14.8311 25.8018 13.5648 25.8018 12.7837 25.0207L1.92847 14.1655Z" fill="#797777"/>
</svg>
