<svg width="32" height="32" viewBox="0 0 32 32" fill="none" xmlns="http://www.w3.org/2000/svg">
<path d="M28.6667 5.3335H25.7778V7.11127H28.4445V26.6668H3.55559V7.11127H6.22226V5.3335H3.33337C3.12558 5.33697 2.92051 5.38134 2.72988 5.46408C2.53924 5.54682 2.36677 5.6663 2.22232 5.81571C2.07786 5.96512 1.96426 6.14151 1.88799 6.33483C1.81172 6.52815 1.77428 6.7346 1.77782 6.94238V26.8357C1.77428 27.0435 1.81172 27.25 1.88799 27.4433C1.96426 27.6366 2.07786 27.813 2.22232 27.9624C2.36677 28.1118 2.53924 28.2313 2.72988 28.314C2.92051 28.3968 3.12558 28.4411 3.33337 28.4446H28.6667C28.8745 28.4411 29.0796 28.3968 29.2702 28.314C29.4608 28.2313 29.6333 28.1118 29.7778 27.9624C29.9222 27.813 30.0358 27.6366 30.1121 27.4433C30.1884 27.25 30.2258 27.0435 30.2223 26.8357V6.94238C30.2258 6.7346 30.1884 6.52815 30.1121 6.33483C30.0358 6.14151 29.9222 5.96512 29.7778 5.81571C29.6333 5.6663 29.4608 5.54682 29.2702 5.46408C29.0796 5.38134 28.8745 5.33697 28.6667 5.3335Z" fill="#797777"/>
<path d="M7.11108 12.4443H8.88886V14.2221H7.11108V12.4443Z" fill="#797777"/>
<path d="M12.4445 12.4443H14.2222V14.2221H12.4445V12.4443Z" fill="#797777"/>
<path d="M17.7778 12.4443H19.5556V14.2221H17.7778V12.4443Z" fill="#797777"/>
<path d="M23.1111 12.4443H24.8889V14.2221H23.1111V12.4443Z" fill="#797777"/>
<path d="M7.11108 16.8887H8.88886V18.6665H7.11108V16.8887Z" fill="#797777"/>
<path d="M12.4445 16.8887H14.2222V18.6665H12.4445V16.8887Z" fill="#797777"/>
<path d="M17.7778 16.8887H19.5556V18.6665H17.7778V16.8887Z" fill="#797777"/>
<path d="M23.1111 16.8887H24.8889V18.6665H23.1111V16.8887Z" fill="#797777"/>
<path d="M7.11108 21.3335H8.88886V23.1113H7.11108V21.3335Z" fill="#797777"/>
<path d="M12.4445 21.3335H14.2222V23.1113H12.4445V21.3335Z" fill="#797777"/>
<path d="M17.7778 21.3335H19.5556V23.1113H17.7778V21.3335Z" fill="#797777"/>
<path d="M23.1111 21.3335H24.8889V23.1113H23.1111V21.3335Z" fill="#797777"/>
<path d="M8.88889 8.88894C9.12464 8.88894 9.35073 8.79529 9.51743 8.62859C9.68413 8.46189 9.77778 8.2358 9.77778 8.00005V2.66672C9.77778 2.43097 9.68413 2.20488 9.51743 2.03818C9.35073 1.87148 9.12464 1.77783 8.88889 1.77783C8.65314 1.77783 8.42705 1.87148 8.26035 2.03818C8.09365 2.20488 8 2.43097 8 2.66672V8.00005C8 8.2358 8.09365 8.46189 8.26035 8.62859C8.42705 8.79529 8.65314 8.88894 8.88889 8.88894Z" fill="#797777"/>
<path d="M23.1111 8.88894C23.3468 8.88894 23.5729 8.79529 23.7396 8.62859C23.9063 8.46189 23.9999 8.2358 23.9999 8.00005V2.66672C23.9999 2.43097 23.9063 2.20488 23.7396 2.03818C23.5729 1.87148 23.3468 1.77783 23.1111 1.77783C22.8753 1.77783 22.6492 1.87148 22.4825 2.03818C22.3158 2.20488 22.2222 2.43097 22.2222 2.66672V8.00005C22.2222 8.2358 22.3158 8.46189 22.4825 8.62859C22.6492 8.79529 22.8753 8.88894 23.1111 8.88894Z" fill="#797777"/>
<path d="M11.5555 5.3335H20.4444V7.11127H11.5555V5.3335Z" fill="#797777"/>
</svg>
