<svg width="80" height="80" viewBox="0 0 80 80" fill="none" xmlns="http://www.w3.org/2000/svg">
<path d="M40 10C23.525 10 10 22.8425 10 38.75C10 47.225 13.925 54.755 20 60V71.5625L31.095 66.015C33.915 66.865 36.865 67.5 40 67.5C56.475 67.5 70 54.6575 70 38.75C70 22.8425 56.475 10 40 10ZM40 15C53.8975 15 65 25.665 65 38.75C65 51.835 53.8975 62.5 40 62.5C37.0125 62.5 34.16 61.9325 31.485 61.015L30.47 60.7025L25 63.4375V57.8125L24.0625 57.03C18.515 52.6575 15 46.105 15 38.75C15 25.665 26.1025 15 40 15ZM37.1875 30.86L22.11 46.7975L35.625 39.2975L42.8125 47.0325L57.735 30.8575L44.53 38.2825L37.1875 30.86Z" fill="white"/>
</svg>
