<svg width="60" height="60" viewBox="0 0 60 60" fill="none" xmlns="http://www.w3.org/2000/svg">
<path d="M29.9999 0C21.8455 0 20.8293 0.039375 17.638 0.174375C14.4337 0.331875 12.2662 0.82875 10.3537 1.57125C8.35203 2.32691 6.53928 3.51003 5.04179 5.03813C3.50943 6.53212 2.32566 8.34587 1.57491 10.35C0.832412 12.2625 0.335537 14.43 0.178037 17.6344C0.0336621 20.8275 0.00366211 21.8419 0.00366211 29.9963C0.00366211 38.1506 0.0430371 39.1669 0.178037 42.3581C0.335537 45.5531 0.832412 47.73 1.57491 49.6425C2.33058 51.6441 3.51369 53.4569 5.04179 54.9544C6.53578 56.4867 8.34954 57.6705 10.3537 58.4213C12.2662 59.1544 14.443 59.6606 17.638 59.8181C20.8312 59.9625 21.8455 59.9925 29.9999 59.9925C38.1543 59.9925 39.1705 59.9531 42.3618 59.8181C45.5568 59.6606 47.7337 59.1525 49.6462 58.4213C51.6478 57.6656 53.4605 56.4825 54.958 54.9544C56.4924 53.462 57.6764 51.6478 58.4249 49.6425C59.158 47.73 59.6643 45.5531 59.8218 42.3581C59.9662 39.165 59.9962 38.1506 59.9962 29.9963C59.9962 21.8419 59.9568 20.8256 59.8218 17.6344C59.6643 14.4394 59.1562 12.2513 58.4249 10.35C57.6692 8.34837 56.4861 6.53562 54.958 5.03813C53.4657 3.50379 51.6514 2.31971 49.6462 1.57125C47.7337 0.82875 45.5568 0.331875 42.3618 0.174375C39.1687 0.03 38.1543 0 29.9999 0ZM29.9999 5.4C38.008 5.4 38.9643 5.43937 42.1293 5.57438C45.0487 5.71125 46.6387 6.19875 47.6943 6.61125C48.9993 7.09298 50.1805 7.85972 51.1518 8.85563C52.146 9.8228 52.9099 11.0013 53.3868 12.3038C53.7993 13.3594 54.2868 14.9494 54.4237 17.8687C54.5587 21.0337 54.598 21.9919 54.598 29.9981C54.598 38.0044 54.5587 38.9625 54.4124 42.1275C54.2549 45.0469 53.7674 46.6369 53.3568 47.6925C52.7887 49.1006 52.1549 50.085 51.1087 51.15C50.1341 52.1397 48.9537 52.9027 47.6512 53.385C46.6087 53.7975 44.9962 54.285 42.0655 54.4219C38.8837 54.5569 37.9462 54.5962 29.9174 54.5962C21.8887 54.5962 20.953 54.5569 17.7674 54.4106C14.848 54.2531 13.2374 53.7656 12.1818 53.355C10.7568 52.7869 9.77991 52.1531 8.73366 51.1069C7.67804 50.0513 7.00679 49.0462 6.48929 47.6494C6.06929 46.6069 5.58929 44.9944 5.43366 42.0638C5.32679 38.9194 5.27616 37.9444 5.27616 29.9531C5.27616 21.9656 5.32679 20.9888 5.43366 17.805C5.58929 14.8744 6.06929 13.2656 6.48929 12.2194C7.00679 10.7925 7.67991 9.8175 8.73366 8.76188C9.77804 7.7175 10.7568 7.0425 12.1818 6.51375C13.2374 6.10313 14.8087 5.61562 17.7393 5.46938C20.9212 5.355 21.8587 5.31375 29.8762 5.31375L29.9999 5.4ZM29.9999 14.6006C27.9774 14.5999 25.9746 14.9977 24.106 15.7713C22.2373 16.545 20.5394 17.6792 19.1093 19.1094C17.6792 20.5395 16.5449 22.2374 15.7712 24.106C14.9976 25.9747 14.5998 27.9775 14.6005 30C14.5998 32.0225 14.9976 34.0253 15.7712 35.894C16.5449 37.7626 17.6792 39.4605 19.1093 40.8907C20.5394 42.3208 22.2373 43.455 24.106 44.2287C25.9746 45.0023 27.9774 45.4001 29.9999 45.3994C32.0224 45.4001 34.0252 45.0023 35.8939 44.2287C37.7625 43.455 39.4605 42.3208 40.8906 40.8907C42.3207 39.4605 43.455 37.7626 44.2286 35.894C45.0022 34.0253 45.4 32.0225 45.3993 30C45.4 27.9775 45.0022 25.9747 44.2286 24.106C43.455 22.2374 42.3207 20.5395 40.8906 19.1094C39.4605 17.6792 37.7625 16.545 35.8939 15.7713C34.0252 14.9977 32.0224 14.5999 29.9999 14.6006ZM29.9999 39.9994C24.4724 39.9994 20.0005 35.5275 20.0005 30C20.0005 24.4725 24.4724 20.0006 29.9999 20.0006C35.5274 20.0006 39.9993 24.4725 39.9993 30C39.9993 35.5275 35.5274 39.9994 29.9999 39.9994ZM49.6199 13.9856C49.6189 14.9412 49.2386 15.8574 48.5625 16.5328C47.8864 17.2081 46.9699 17.5875 46.0143 17.5875C45.5418 17.5875 45.0739 17.4944 44.6373 17.3136C44.2008 17.1328 43.8041 16.8678 43.47 16.5336C43.1359 16.1995 42.8709 15.8029 42.6901 15.3663C42.5092 14.9298 42.4162 14.4619 42.4162 13.9894C42.4162 13.5169 42.5092 13.049 42.6901 12.6124C42.8709 12.1759 43.1359 11.7792 43.47 11.4451C43.8041 11.111 44.2008 10.846 44.6373 10.6651C45.0739 10.4843 45.5418 10.3912 46.0143 10.3912C47.9962 10.3912 49.6199 12.0037 49.6199 13.9856Z" fill="white"/>
</svg>
