<svg width="82" height="82" viewBox="0 0 82 82" fill="none" xmlns="http://www.w3.org/2000/svg">
<g filter="url(#filter0_d)">
<circle cx="39" cy="39" r="31" fill="#C40018"/>
<path d="M51.4213 25.6275H40.784C39.9482 25.6275 39.2644 26.3113 39.2644 27.1471V40.8235L43.8232 36.2647H51.4213C52.257 36.2647 52.9409 35.5809 52.9409 34.7451V27.1471C52.9409 26.3113 52.257 25.6275 51.4213 25.6275ZM50.2512 44.2579L46.3914 43.8172C45.9375 43.7639 45.4775 43.8141 45.0458 43.9641C44.6142 44.1142 44.2222 44.3601 43.8992 44.6834L41.1031 47.4794C36.7892 45.2855 33.2829 41.7791 31.0889 37.4652L33.9002 34.6539C34.5536 34.0005 34.8727 33.0887 34.7664 32.1618L34.3257 28.3324C34.2395 27.5911 33.8838 26.9073 33.3261 26.4114C32.7685 25.9154 32.0479 25.6418 31.3017 25.6427H28.6727C26.9556 25.6427 25.5271 27.0711 25.6335 28.7883C26.4389 41.7657 36.8178 52.1294 49.7801 52.9348C51.4972 53.0412 52.9257 51.6128 52.9257 49.8956V47.2667C52.9409 45.7319 51.786 44.4402 50.2512 44.2579Z" fill="white"/>
</g>
<defs>
<filter id="filter0_d" x="0" y="0" width="82" height="82" filterUnits="userSpaceOnUse" color-interpolation-filters="sRGB">
<feFlood flood-opacity="0" result="BackgroundImageFix"/>
<feColorMatrix in="SourceAlpha" type="matrix" values="0 0 0 0 0 0 0 0 0 0 0 0 0 0 0 0 0 0 127 0"/>
<feOffset dx="2" dy="2"/>
<feGaussianBlur stdDeviation="5"/>
<feColorMatrix type="matrix" values="0 0 0 0 0 0 0 0 0 0 0 0 0 0 0 0 0 0 0.6 0"/>
<feBlend mode="normal" in2="BackgroundImageFix" result="effect1_dropShadow"/>
<feBlend mode="normal" in="SourceGraphic" in2="effect1_dropShadow" result="shape"/>
</filter>
</defs>
</svg>
